<?xml version="1.0" encoding="UTF-8" standalone="no"?>
<svg
   xmlns:dc="http://purl.org/dc/elements/1.1/"
   xmlns:cc="http://creativecommons.org/ns#"
   xmlns:rdf="http://www.w3.org/1999/02/22-rdf-syntax-ns#"
   xmlns:svg="http://www.w3.org/2000/svg"
   xmlns="http://www.w3.org/2000/svg"
   xmlns:sodipodi="http://sodipodi.sourceforge.net/DTD/sodipodi-0.dtd"
   xmlns:inkscape="http://www.inkscape.org/namespaces/inkscape"
   id="Layer_1"
   data-name="Layer 1"
   width="330mm"
   height="330mm"
   viewBox="0 0 935.52381 935.52381"
   version="1.1"
   sodipodi:docname="x5s.svg"
   inkscape:version="0.92.5 (2060ec1f9f, 2020-04-08)">
  <metadata
     id="metadata77">
    <rdf:RDF>
      <cc:Work
         rdf:about="">
        <dc:format>image/svg+xml</dc:format>
        <dc:type
           rdf:resource="http://purl.org/dc/dcmitype/StillImage" />
        <dc:title>ender3_bed_texture</dc:title>
      </cc:Work>
    </rdf:RDF>
  </metadata>
  <defs
     id="defs75" />
  <sodipodi:namedview
     pagecolor="#ffffff"
     bordercolor="#666666"
     borderopacity="1"
     objecttolerance="10"
     gridtolerance="10"
     guidetolerance="10"
     inkscape:pageopacity="0"
     inkscape:pageshadow="2"
     inkscape:window-width="1600"
     inkscape:window-height="837"
     id="namedview73"
     showgrid="false"
     inkscape:zoom="0.40048005"
     inkscape:cx="432.30134"
     inkscape:cy="496.05259"
     inkscape:window-x="-8"
     inkscape:window-y="-8"
     inkscape:window-maximized="1"
     inkscape:current-layer="Layer_1" />
  <title
     id="title2">ender3_bed_texture</title>
  <path
     style="color:#000000;font-style:normal;font-variant:normal;font-weight:normal;font-stretch:normal;font-size:medium;line-height:normal;font-family:sans-serif;font-variant-ligatures:normal;font-variant-position:normal;font-variant-caps:normal;font-variant-numeric:normal;font-variant-alternates:normal;font-feature-settings:normal;text-indent:0;text-align:start;text-decoration:none;text-decoration-line:none;text-decoration-style:solid;text-decoration-color:#000000;letter-spacing:normal;word-spacing:normal;text-transform:none;writing-mode:lr-tb;direction:ltr;text-orientation:mixed;dominant-baseline:auto;baseline-shift:baseline;text-anchor:start;white-space:normal;shape-padding:0;clip-rule:nonzero;display:inline;overflow:visible;visibility:visible;opacity:1;isolation:auto;mix-blend-mode:normal;color-interpolation:sRGB;color-interpolation-filters:linearRGB;solid-color:#000000;solid-opacity:1;vector-effect:none;fill:#f2f2f2;fill-opacity:1;fill-rule:nonzero;stroke:none;stroke-width:5.66984129;stroke-linecap:round;stroke-linejoin:round;stroke-miterlimit:4;stroke-dasharray:none;stroke-dashoffset:0;stroke-opacity:1;color-rendering:auto;image-rendering:auto;shape-rendering:auto;text-rendering:auto;enable-background:accumulate"
     d="m 467.76172,395.4707 c -39.89135,0 -72.29102,32.39967 -72.29102,72.29102 0,39.89135 32.39967,72.29101 72.29102,72.29101 39.89135,0 72.29101,-32.39966 72.29101,-72.29101 0,-39.89135 -32.39966,-72.29102 -72.29101,-72.29102 z m 0,5.66992 c 36.82714,0 66.62109,29.79396 66.62109,66.6211 0,36.82714 -29.79395,66.62109 -66.62109,66.62109 -36.82714,0 -66.6211,-29.79395 -66.6211,-66.62109 0,-36.82714 29.79396,-66.6211 66.6211,-66.6211 z"
     id="path79"
     inkscape:connector-curvature="0" />
  <path
     style="color:#000000;font-style:normal;font-variant:normal;font-weight:normal;font-stretch:normal;font-size:medium;line-height:normal;font-family:sans-serif;font-variant-ligatures:normal;font-variant-position:normal;font-variant-caps:normal;font-variant-numeric:normal;font-variant-alternates:normal;font-feature-settings:normal;text-indent:0;text-align:start;text-decoration:none;text-decoration-line:none;text-decoration-style:solid;text-decoration-color:#000000;letter-spacing:normal;word-spacing:normal;text-transform:none;writing-mode:lr-tb;direction:ltr;text-orientation:mixed;dominant-baseline:auto;baseline-shift:baseline;text-anchor:start;white-space:normal;shape-padding:0;clip-rule:nonzero;display:inline;overflow:visible;visibility:visible;opacity:1;isolation:auto;mix-blend-mode:normal;color-interpolation:sRGB;color-interpolation-filters:linearRGB;solid-color:#000000;solid-opacity:1;vector-effect:none;fill:#f2f2f2;fill-opacity:1;fill-rule:nonzero;stroke:none;stroke-width:5.66984129;stroke-linecap:round;stroke-linejoin:round;stroke-miterlimit:4;stroke-dasharray:none;stroke-dashoffset:0;stroke-opacity:1;color-rendering:auto;image-rendering:auto;shape-rendering:auto;text-rendering:auto;enable-background:accumulate"
     d="m 467.76172,395.4707 c -39.89135,0 -72.29102,32.39967 -72.29102,72.29102 0,39.89135 32.39967,72.29101 72.29102,72.29101 39.89135,0 72.29101,-32.39966 72.29101,-72.29101 0,-39.89135 -32.39966,-72.29102 -72.29101,-72.29102 z m 0,5.66992 c 36.82714,0 66.62109,29.79396 66.62109,66.6211 0,36.82714 -29.79395,66.62109 -66.62109,66.62109 -36.82714,0 -66.6211,-29.79395 -66.6211,-66.62109 0,-36.82714 29.79396,-66.6211 66.6211,-66.6211 z"
     id="circle81"
     inkscape:connector-curvature="0" />
  <path
     style="color:#000000;font-style:normal;font-variant:normal;font-weight:normal;font-stretch:normal;font-size:medium;line-height:normal;font-family:sans-serif;font-variant-ligatures:normal;font-variant-position:normal;font-variant-caps:normal;font-variant-numeric:normal;font-variant-alternates:normal;font-feature-settings:normal;text-indent:0;text-align:start;text-decoration:none;text-decoration-line:none;text-decoration-style:solid;text-decoration-color:#000000;letter-spacing:normal;word-spacing:normal;text-transform:none;writing-mode:lr-tb;direction:ltr;text-orientation:mixed;dominant-baseline:auto;baseline-shift:baseline;text-anchor:start;white-space:normal;shape-padding:0;clip-rule:nonzero;display:inline;overflow:visible;visibility:visible;opacity:1;isolation:auto;mix-blend-mode:normal;color-interpolation:sRGB;color-interpolation-filters:linearRGB;solid-color:#000000;solid-opacity:1;vector-effect:none;fill:#f2f2f2;fill-opacity:1;fill-rule:nonzero;stroke:none;stroke-width:5.66984129;stroke-linecap:round;stroke-linejoin:round;stroke-miterlimit:4;stroke-dasharray:none;stroke-dashoffset:0;stroke-opacity:1;color-rendering:auto;image-rendering:auto;shape-rendering:auto;text-rendering:auto;enable-background:accumulate"
     d="m 467.76172,324.59766 c -79.03343,0 -143.16406,64.13063 -143.16406,143.16406 0,79.03343 64.13063,143.16406 143.16406,143.16406 79.03343,0 143.16406,-64.13063 143.16406,-143.16406 0,-79.03343 -64.13063,-143.16406 -143.16406,-143.16406 z m 0,5.66992 c 75.96922,0 137.49414,61.52492 137.49414,137.49414 0,75.96922 -61.52492,137.49414 -137.49414,137.49414 -75.96922,0 -137.49414,-61.52492 -137.49414,-137.49414 0,-75.96922 61.52492,-137.49414 137.49414,-137.49414 z"
     id="circle81-1"
     inkscape:connector-curvature="0" />
  <path
     style="color:#000000;font-style:normal;font-variant:normal;font-weight:normal;font-stretch:normal;font-size:medium;line-height:normal;font-family:sans-serif;font-variant-ligatures:normal;font-variant-position:normal;font-variant-caps:normal;font-variant-numeric:normal;font-variant-alternates:normal;font-feature-settings:normal;text-indent:0;text-align:start;text-decoration:none;text-decoration-line:none;text-decoration-style:solid;text-decoration-color:#000000;letter-spacing:normal;word-spacing:normal;text-transform:none;writing-mode:lr-tb;direction:ltr;text-orientation:mixed;dominant-baseline:auto;baseline-shift:baseline;text-anchor:start;white-space:normal;shape-padding:0;clip-rule:nonzero;display:inline;overflow:visible;visibility:visible;opacity:1;isolation:auto;mix-blend-mode:normal;color-interpolation:sRGB;color-interpolation-filters:linearRGB;solid-color:#000000;solid-opacity:1;vector-effect:none;fill:#f2f2f2;fill-opacity:1;fill-rule:nonzero;stroke:none;stroke-width:5.66984129;stroke-linecap:round;stroke-linejoin:round;stroke-miterlimit:4;stroke-dasharray:none;stroke-dashoffset:0;stroke-opacity:1;color-rendering:auto;image-rendering:auto;shape-rendering:auto;text-rendering:auto;enable-background:accumulate"
     d="m 467.76172,253.72461 c -118.17552,0 -214.03711,95.86159 -214.03711,214.03711 0,118.17552 95.86159,214.03711 214.03711,214.03711 118.17552,0 214.03711,-95.86159 214.03711,-214.03711 0,-118.17552 -95.86159,-214.03711 -214.03711,-214.03711 z m 0,5.66992 c 115.11131,0 208.36719,93.25588 208.36719,208.36719 0,115.11131 -93.25588,208.36719 -208.36719,208.36719 -115.11131,0 -208.36719,-93.25588 -208.36719,-208.36719 0,-115.11131 93.25588,-208.36719 208.36719,-208.36719 z"
     id="circle98"
     inkscape:connector-curvature="0" />
  <path
     style="color:#000000;font-style:normal;font-variant:normal;font-weight:normal;font-stretch:normal;font-size:medium;line-height:normal;font-family:sans-serif;font-variant-ligatures:normal;font-variant-position:normal;font-variant-caps:normal;font-variant-numeric:normal;font-variant-alternates:normal;font-feature-settings:normal;text-indent:0;text-align:start;text-decoration:none;text-decoration-line:none;text-decoration-style:solid;text-decoration-color:#000000;letter-spacing:normal;word-spacing:normal;text-transform:none;writing-mode:lr-tb;direction:ltr;text-orientation:mixed;dominant-baseline:auto;baseline-shift:baseline;text-anchor:start;white-space:normal;shape-padding:0;clip-rule:nonzero;display:inline;overflow:visible;visibility:visible;opacity:1;isolation:auto;mix-blend-mode:normal;color-interpolation:sRGB;color-interpolation-filters:linearRGB;solid-color:#000000;solid-opacity:1;vector-effect:none;fill:#f2f2f2;fill-opacity:1;fill-rule:nonzero;stroke:none;stroke-width:5.66984129;stroke-linecap:round;stroke-linejoin:round;stroke-miterlimit:4;stroke-dasharray:none;stroke-dashoffset:0;stroke-opacity:1;color-rendering:auto;image-rendering:auto;shape-rendering:auto;text-rendering:auto;enable-background:accumulate"
     d="m 467.76172,182.85156 c -157.3176,0 -284.91016,127.59256 -284.91016,284.91016 0,157.3176 127.59256,284.91016 284.91016,284.91016 157.3176,0 284.91016,-127.59256 284.91016,-284.91016 0,-157.3176 -127.59256,-284.91016 -284.91016,-284.91016 z m 0,5.66992 c 154.25339,0 279.24023,124.98685 279.24023,279.24024 0,154.25339 -124.98684,279.24023 -279.24023,279.24023 -154.25339,0 -279.24024,-124.98684 -279.24024,-279.24023 0,-154.25339 124.98685,-279.24024 279.24024,-279.24024 z"
     id="circle100"
     inkscape:connector-curvature="0" />
  <path
     style="color:#000000;font-style:normal;font-variant:normal;font-weight:normal;font-stretch:normal;font-size:medium;line-height:normal;font-family:sans-serif;font-variant-ligatures:normal;font-variant-position:normal;font-variant-caps:normal;font-variant-numeric:normal;font-variant-alternates:normal;font-feature-settings:normal;text-indent:0;text-align:start;text-decoration:none;text-decoration-line:none;text-decoration-style:solid;text-decoration-color:#000000;letter-spacing:normal;word-spacing:normal;text-transform:none;writing-mode:lr-tb;direction:ltr;text-orientation:mixed;dominant-baseline:auto;baseline-shift:baseline;text-anchor:start;white-space:normal;shape-padding:0;clip-rule:nonzero;display:inline;overflow:visible;visibility:visible;opacity:1;isolation:auto;mix-blend-mode:normal;color-interpolation:sRGB;color-interpolation-filters:linearRGB;solid-color:#000000;solid-opacity:1;vector-effect:none;fill:#f2f2f2;fill-opacity:1;fill-rule:nonzero;stroke:none;stroke-width:5.66984129;stroke-linecap:round;stroke-linejoin:round;stroke-miterlimit:4;stroke-dasharray:none;stroke-dashoffset:0;stroke-opacity:1;color-rendering:auto;image-rendering:auto;shape-rendering:auto;text-rendering:auto;enable-background:accumulate"
     d="m 467.76172,111.97852 c -196.45968,0 -355.7832,159.32352 -355.7832,355.7832 0,196.45968 159.32352,355.7832 355.7832,355.7832 196.45968,0 355.7832,-159.32352 355.7832,-355.7832 0,-196.45968 -159.32352,-355.7832 -355.7832,-355.7832 z m 0,5.66992 c 193.39547,0 350.11328,156.71781 350.11328,350.11328 0,193.39547 -156.71781,350.11328 -350.11328,350.11328 -193.39547,0 -350.11328,-156.71781 -350.11328,-350.11328 0,-193.39547 156.71781,-350.11328 350.11328,-350.11328 z"
     id="circle102"
     inkscape:connector-curvature="0" />
  <path
     style="color:#000000;font-style:normal;font-variant:normal;font-weight:normal;font-stretch:normal;font-size:medium;line-height:normal;font-family:sans-serif;font-variant-ligatures:normal;font-variant-position:normal;font-variant-caps:normal;font-variant-numeric:normal;font-variant-alternates:normal;font-feature-settings:normal;text-indent:0;text-align:start;text-decoration:none;text-decoration-line:none;text-decoration-style:solid;text-decoration-color:#000000;letter-spacing:normal;word-spacing:normal;text-transform:none;writing-mode:lr-tb;direction:ltr;text-orientation:mixed;dominant-baseline:auto;baseline-shift:baseline;text-anchor:start;white-space:normal;shape-padding:0;clip-rule:nonzero;display:inline;overflow:visible;visibility:visible;opacity:1;isolation:auto;mix-blend-mode:normal;color-interpolation:sRGB;color-interpolation-filters:linearRGB;solid-color:#000000;solid-opacity:1;vector-effect:none;fill:#f2f2f2;fill-opacity:1;fill-rule:nonzero;stroke:none;stroke-width:5.66984129;stroke-linecap:round;stroke-linejoin:round;stroke-miterlimit:4;stroke-dasharray:none;stroke-dashoffset:0;stroke-opacity:1;color-rendering:auto;image-rendering:auto;shape-rendering:auto;text-rendering:auto;enable-background:accumulate"
     d="m 467.76172,41.105469 c -113.155,0 -221.67874,44.952179 -301.69141,124.964841 -80.012662,80.01267 -124.964841,188.53641 -124.964841,301.69141 0,113.15499 44.952179,221.67874 124.964841,301.6914 80.01267,80.01267 188.53641,124.96485 301.69141,124.96485 113.15499,0 221.67874,-44.95218 301.6914,-124.96485 80.01267,-80.01266 124.96485,-188.53641 124.96485,-301.6914 0,-113.155 -44.95218,-221.67874 -124.96485,-301.69141 C 689.44046,86.057648 580.91671,41.105469 467.76172,41.105469 Z m 0,5.669922 c 111.65344,0 218.73074,44.353784 297.68164,123.304689 78.9509,78.9509 123.30469,186.0282 123.30469,297.68164 0,111.65344 -44.35379,218.73074 -123.30469,297.68164 -78.9509,78.9509 -186.0282,123.30469 -297.68164,123.30469 -111.65344,0 -218.73074,-44.35379 -297.68164,-123.30469 C 91.129175,686.49246 46.775391,579.41516 46.775391,467.76172 c 0,-111.65344 44.353784,-218.73074 123.304689,-297.68164 78.9509,-78.950905 186.0282,-123.304689 297.68164,-123.304689 z"
     id="circle104"
     inkscape:connector-curvature="0" />
  <g
     transform="translate(141.746,141.746)"
     aria-label="1&quot;"
     style="font-style:normal;font-weight:normal;font-size:30.00291061px;line-height:1.25;font-family:sans-serif;letter-spacing:0px;word-spacing:0px;fill:#f0f0f0;fill-opacity:0.75294118;stroke:none;stroke-width:0.75007278;stroke-opacity:1"
     id="text14">
    <path
       inkscape:connector-curvature="0"
       d="m 560.6043,356.96381 h 4.83446 v -16.68619 l -5.2593,1.05479 v -2.69557 l 5.23,-1.05479 h 2.95927 v 19.38176 h 4.83445 v 2.49047 H 560.6043 Z"
       style="fill:#f0f0f0;fill-opacity:0.75294118;stroke:none;stroke-width:0.75007278;stroke-opacity:1"
       id="path827" />
    <path
       inkscape:connector-curvature="0"
       d="m 581.36315,337.58205 v 8.13067 h -2.49047 v -8.13067 z m 5.53765,0 v 8.13067 h -2.49048 v -8.13067 z"
       style="fill:#f0f0f0;fill-opacity:0.75294118;stroke:none;stroke-width:0.75007278;stroke-opacity:1"
       id="path829" />
  </g>
  <rect
     y="-468.93246"
     x="24.82329"
     height="2.3411677"
     width="885.8772"
     id="rect825"
     style="opacity:1;fill:#f0f0f0;fill-opacity:0.75294118;stroke:#f2f2f2;stroke-width:5.66984177;stroke-linecap:round;stroke-linejoin:round;stroke-miterlimit:4;stroke-dasharray:none;stroke-opacity:1"
     transform="rotate(90)" />
  <rect
     transform="scale(-1)"
     style="opacity:1;fill:#f0f0f0;fill-opacity:0.75294118;stroke:#f2f2f2;stroke-width:5.66984177;stroke-linecap:round;stroke-linejoin:round;stroke-miterlimit:4;stroke-dasharray:none;stroke-opacity:1"
     id="rect40"
     width="885.8772"
     height="2.3411677"
     x="-910.7005"
     y="-468.93246" />
</svg>
